<?xml version="1.0" encoding="UTF-8"?><svg xmlns="http://www.w3.org/2000/svg" xmlns:xlink="http://www.w3.org/1999/xlink" fill-opacity="1" color-rendering="auto" color-interpolation="auto" text-rendering="auto" stroke="black" stroke-linecap="square" width="784" stroke-miterlimit="10" shape-rendering="auto" stroke-opacity="1" fill="black" stroke-dasharray="none" font-weight="normal" stroke-width="1" height="334" font-family="'Dialog'" font-style="normal" stroke-linejoin="miter" font-size="12px" stroke-dashoffset="0" image-rendering="auto">
  <!--Generated by ySVG 2.5-->
  <defs id="genericDefs"/>
  <g>
    <defs id="defs1">
      <clipPath clipPathUnits="userSpaceOnUse" id="clipPath1">
        <path d="M0 0 L784 0 L784 334 L0 334 L0 0 Z"/>
      </clipPath>
      <clipPath clipPathUnits="userSpaceOnUse" id="clipPath2">
        <path d="M104 344 L888 344 L888 678 L104 678 L104 344 Z"/>
      </clipPath>
    </defs>
    <g fill="white" text-rendering="geometricPrecision" shape-rendering="geometricPrecision" transform="translate(-104,-344)" stroke="white">
      <rect x="104" width="784" height="334" y="344" clip-path="url(#clipPath2)" stroke="none"/>
    </g>
    <g fill="white" text-rendering="geometricPrecision" shape-rendering="geometricPrecision" transform="matrix(1,0,0,1,-104,-344)" stroke="white">
      <rect x="485.8134" y="611.8958" clip-path="url(#clipPath2)" width="398.64" rx="4" ry="4" height="61.2148" stroke="none"/>
    </g>
    <g text-rendering="geometricPrecision" stroke-miterlimit="1.45" stroke-dasharray="6,2" shape-rendering="geometricPrecision" transform="matrix(1,0,0,1,-104,-344)" stroke-linecap="butt">
      <rect x="485.8134" y="611.8958" clip-path="url(#clipPath2)" fill="none" width="398.64" rx="4" ry="4" height="61.2148"/>
      <text x="488.9293" y="625.7043" clip-path="url(#clipPath2)" font-family="sans-serif" stroke-dasharray="none" stroke="none" xml:space="preserve">sw: &lt;http://sweet.jpl.nasa.gov/&gt;</text>
      <text x="488.9293" y="639.6731" clip-path="url(#clipPath2)" font-family="sans-serif" stroke-dasharray="none" stroke="none" xml:space="preserve">sf: &lt;http://www.opengis.net/ont/sf#&gt;</text>
      <text x="488.9293" y="653.6418" clip-path="url(#clipPath2)" font-family="sans-serif" stroke-dasharray="none" stroke="none" xml:space="preserve">time: &lt;https://www.w3.org/2006/time#&gt;</text>
      <text x="488.9293" y="667.6106" clip-path="url(#clipPath2)" font-family="sans-serif" stroke-dasharray="none" stroke="none" xml:space="preserve">dul: &lt;http://www.ontologydesignpatterns.org/ont/dul/DUL.owl#&gt;</text>
    </g>
    <g fill="white" text-rendering="geometricPrecision" shape-rendering="geometricPrecision" transform="matrix(1,0,0,1,-104,-344)" stroke="white">
      <rect x="745.4134" y="543.6074" clip-path="url(#clipPath2)" width="139.04" rx="4" ry="4" height="94.9932" stroke="none"/>
    </g>
    <g text-rendering="geometricPrecision" stroke-miterlimit="1.45" stroke-dasharray="6,2" shape-rendering="geometricPrecision" transform="matrix(1,0,0,1,-104,-344)" stroke-linecap="butt">
      <rect x="745.4134" y="543.6074" clip-path="url(#clipPath2)" fill="none" width="139.04" rx="4" ry="4" height="94.9932"/>
      <text x="751.4134" y="560.7461" clip-path="url(#clipPath2)" font-family="sans-serif" stroke-dasharray="none" stroke="none" font-weight="bold" xml:space="preserve">Notation</text>
      <rect x="242.6666" y="565.1016" clip-path="url(#clipPath2)" fill="none" width="67.7747" rx="4" ry="4" height="87.728"/>
      <text x="235.5377" y="669.9683" clip-path="url(#clipPath2)" font-family="sans-serif" stroke-dasharray="none" stroke="none" xml:space="preserve">Maritime Events</text>
      <rect x="107.1858" y="577.236" clip-path="url(#clipPath2)" fill="none" width="121" rx="4" ry="4" height="75.5936"/>
      <text x="113.1858" y="669.9683" clip-path="url(#clipPath2)" font-family="sans-serif" stroke-dasharray="none" stroke="none" xml:space="preserve">Aviation Events</text>
    </g>
    <g fill="white" text-rendering="geometricPrecision" shape-rendering="geometricPrecision" transform="matrix(1,0,0,1,-104,-344)" stroke="white">
      <rect x="496.0334" y="480.5539" clip-path="url(#clipPath2)" width="96.2" rx="4" ry="4" height="23.8085" stroke="none"/>
    </g>
    <g text-rendering="geometricPrecision" stroke-miterlimit="1.45" shape-rendering="geometricPrecision" transform="matrix(1,0,0,1,-104,-344)" stroke-linecap="butt">
      <rect x="496.0334" y="480.5539" clip-path="url(#clipPath2)" fill="none" width="96.2" rx="4" ry="4" height="23.8085"/>
      <text x="501.5124" xml:space="preserve" y="496.6125" clip-path="url(#clipPath2)" font-family="sans-serif" stroke="none">TrajectoryPart</text>
    </g>
    <g fill="white" text-rendering="geometricPrecision" shape-rendering="geometricPrecision" transform="matrix(1,0,0,1,-104,-344)" stroke="white">
      <rect x="703.2145" y="416.0954" clip-path="url(#clipPath2)" width="96.2" rx="4" ry="4" height="23.8085" stroke="none"/>
    </g>
    <g text-rendering="geometricPrecision" stroke-miterlimit="1.45" shape-rendering="geometricPrecision" transform="matrix(1,0,0,1,-104,-344)" stroke-linecap="butt">
      <rect x="703.2145" y="416.0954" clip-path="url(#clipPath2)" fill="none" width="96.2" rx="4" ry="4" height="23.8085"/>
      <text x="720.8077" xml:space="preserve" y="432.1539" clip-path="url(#clipPath2)" font-family="sans-serif" stroke="none">Trajectory</text>
    </g>
    <g fill="white" text-rendering="geometricPrecision" shape-rendering="geometricPrecision" transform="matrix(1,0,0,1,-104,-344)" stroke="white">
      <rect x="525.3253" y="347.6676" clip-path="url(#clipPath2)" width="105" rx="4" ry="4" height="23.8085" stroke="none"/>
    </g>
    <g text-rendering="geometricPrecision" stroke-miterlimit="1.45" shape-rendering="geometricPrecision" transform="matrix(1,0,0,1,-104,-344)" stroke-linecap="butt">
      <rect x="525.3253" y="347.6676" clip-path="url(#clipPath2)" fill="none" width="105" rx="4" ry="4" height="23.8085"/>
      <text x="533.9913" xml:space="preserve" y="363.7262" clip-path="url(#clipPath2)" font-family="sans-serif" stroke="none">moving_object</text>
    </g>
    <g fill="white" text-rendering="geometricPrecision" shape-rendering="geometricPrecision" transform="matrix(1,0,0,1,-104,-344)" stroke="white">
      <rect x="429.6192" y="550.3285" clip-path="url(#clipPath2)" width="105" rx="4" ry="4" height="23.8085" stroke="none"/>
    </g>
    <g text-rendering="geometricPrecision" stroke-miterlimit="1.45" shape-rendering="geometricPrecision" transform="matrix(1,0,0,1,-104,-344)" stroke-linecap="butt">
      <rect x="429.6192" y="550.3285" clip-path="url(#clipPath2)" fill="none" width="105" rx="4" ry="4" height="23.8085"/>
      <text x="438.3174" xml:space="preserve" y="566.387" clip-path="url(#clipPath2)" font-family="sans-serif" stroke="none">SemanticNode</text>
    </g>
    <g fill="white" text-rendering="geometricPrecision" shape-rendering="geometricPrecision" transform="matrix(1,0,0,1,-104,-344)" stroke="white">
      <rect x="622.2334" width="64.8728" height="15.9661" y="448.6748" clip-path="url(#clipPath2)" stroke="none"/>
    </g>
    <g text-rendering="geometricPrecision" stroke-miterlimit="1.45" shape-rendering="geometricPrecision" font-family="sans-serif" transform="matrix(1,0,0,1,-104,-344)" stroke-linecap="butt">
      <text x="623.9697" xml:space="preserve" y="460.8122" clip-path="url(#clipPath2)" stroke="none">comprises</text>
    </g>
    <g fill="white" text-rendering="geometricPrecision" shape-rendering="geometricPrecision" transform="matrix(1,0,0,1,-104,-344)" stroke="white">
      <rect x="659.9378" width="64.0339" height="15.9661" y="478.9534" clip-path="url(#clipPath2)" stroke="none"/>
    </g>
    <g text-rendering="geometricPrecision" stroke-miterlimit="1.45" shape-rendering="geometricPrecision" transform="matrix(1,0,0,1,-104,-344)" stroke-linecap="butt">
      <rect fill="none" x="659.9378" width="64.0339" height="15.9661" y="478.9534" clip-path="url(#clipPath2)"/>
      <text x="664.7468" xml:space="preserve" y="491.0907" clip-path="url(#clipPath2)" font-family="sans-serif" stroke="none">hasInitial</text>
    </g>
    <g fill="white" text-rendering="geometricPrecision" shape-rendering="geometricPrecision" transform="matrix(1,0,0,1,-104,-344)" stroke="white">
      <rect x="659.9378" width="64.0339" height="15.9661" y="501.9194" clip-path="url(#clipPath2)" stroke="none"/>
    </g>
    <g text-rendering="geometricPrecision" stroke-miterlimit="1.45" shape-rendering="geometricPrecision" transform="matrix(1,0,0,1,-104,-344)" stroke-linecap="butt">
      <rect fill="none" x="659.9378" width="64.0339" height="15.9661" y="501.9194" clip-path="url(#clipPath2)"/>
      <text x="668.8513" xml:space="preserve" y="514.0568" clip-path="url(#clipPath2)" font-family="sans-serif" stroke="none">hasLast</text>
    </g>
    <g fill="white" text-rendering="geometricPrecision" shape-rendering="geometricPrecision" transform="matrix(1,0,0,1,-104,-344)" stroke="white">
      <rect x="429.6192" y="522.5879" clip-path="url(#clipPath2)" width="105" rx="4" ry="4" height="23.8085" stroke="none"/>
    </g>
    <g text-rendering="geometricPrecision" stroke-miterlimit="1.45" shape-rendering="geometricPrecision" transform="matrix(1,0,0,1,-104,-344)" stroke-linecap="butt">
      <rect x="429.6192" y="522.5879" clip-path="url(#clipPath2)" fill="none" width="105" rx="4" ry="4" height="23.8085"/>
      <text x="455.1192" xml:space="preserve" y="538.6464" clip-path="url(#clipPath2)" font-family="sans-serif" stroke="none">Segment</text>
    </g>
    <g fill="white" text-rendering="geometricPrecision" shape-rendering="geometricPrecision" transform="matrix(1,0,0,1,-104,-344)" stroke="white">
      <rect x="552.1459" y="558.7764" clip-path="url(#clipPath2)" width="105" rx="4" ry="4" height="23.8085" stroke="none"/>
    </g>
    <g text-rendering="geometricPrecision" stroke-miterlimit="1.45" shape-rendering="geometricPrecision" transform="matrix(1,0,0,1,-104,-344)" stroke-linecap="butt">
      <rect x="552.1459" y="558.7764" clip-path="url(#clipPath2)" fill="none" width="105" rx="4" ry="4" height="23.8085"/>
      <text x="568.3178" xml:space="preserve" y="574.8349" clip-path="url(#clipPath2)" font-family="sans-serif" stroke="none">RawPosition</text>
    </g>
    <g fill="white" text-rendering="geometricPrecision" shape-rendering="geometricPrecision" transform="matrix(1,0,0,1,-104,-344)" stroke="white">
      <rect x="271.9123" y="504.3201" clip-path="url(#clipPath2)" width="80.54" rx="4" ry="4" height="23.8085" stroke="none"/>
    </g>
    <g text-rendering="geometricPrecision" stroke-miterlimit="1.45" shape-rendering="geometricPrecision" transform="matrix(1,0,0,1,-104,-344)" stroke-linecap="butt">
      <rect x="271.9123" y="504.3201" clip-path="url(#clipPath2)" fill="none" width="80.54" rx="4" ry="4" height="23.8085"/>
      <text x="283.694" xml:space="preserve" y="520.3786" clip-path="url(#clipPath2)" font-family="sans-serif" stroke="none">dul:Event</text>
    </g>
    <g fill="white" text-rendering="geometricPrecision" shape-rendering="geometricPrecision" transform="matrix(1,0,0,1,-104,-344)" stroke="white">
      <rect x="761.7426" y="511.9667" clip-path="url(#clipPath2)" width="121" rx="4" ry="4" height="23.8085" stroke="none"/>
    </g>
    <g text-rendering="geometricPrecision" stroke-miterlimit="1.45" shape-rendering="geometricPrecision" transform="matrix(1,0,0,1,-104,-344)" stroke-linecap="butt">
      <rect x="761.7426" y="511.9667" clip-path="url(#clipPath2)" fill="none" width="121" rx="4" ry="4" height="23.8085"/>
      <text x="778.9828" xml:space="preserve" y="528.0253" clip-path="url(#clipPath2)" font-family="sans-serif" stroke="none">RawTrajectory</text>
    </g>
    <g fill="white" text-rendering="geometricPrecision" shape-rendering="geometricPrecision" transform="matrix(1,0,0,1,-104,-344)" stroke="white">
      <rect x="117.6352" y="384.8679" clip-path="url(#clipPath2)" width="105" rx="4" ry="4" height="23.8085" stroke="none"/>
    </g>
    <g text-rendering="geometricPrecision" stroke-miterlimit="1.45" shape-rendering="geometricPrecision" transform="matrix(1,0,0,1,-104,-344)" stroke-linecap="butt">
      <rect x="117.6352" y="384.8679" clip-path="url(#clipPath2)" fill="none" width="105" rx="4" ry="4" height="23.8085"/>
      <text x="122.6597" xml:space="preserve" y="400.9264" clip-path="url(#clipPath2)" font-family="sans-serif" stroke="none">SpatioTemporal</text>
    </g>
    <g fill="white" text-rendering="geometricPrecision" shape-rendering="geometricPrecision" transform="matrix(1,0,0,1,-104,-344)" stroke="white">
      <rect x="380.1744" y="347.6676" clip-path="url(#clipPath2)" width="132" rx="4" ry="4" height="23.8085" stroke="none"/>
    </g>
    <g text-rendering="geometricPrecision" stroke-miterlimit="1.45" shape-rendering="geometricPrecision" transform="matrix(1,0,0,1,-104,-344)" stroke-linecap="butt">
      <rect x="380.1744" y="347.6676" clip-path="url(#clipPath2)" fill="none" width="132" rx="4" ry="4" height="23.8085"/>
      <text x="384.5895" xml:space="preserve" y="363.7262" clip-path="url(#clipPath2)" font-family="sans-serif" stroke="none">time:TemporalEntity</text>
    </g>
    <g fill="white" text-rendering="geometricPrecision" shape-rendering="geometricPrecision" transform="matrix(1,0,0,1,-104,-344)" stroke="white">
      <rect x="315.2544" y="416.0954" clip-path="url(#clipPath2)" width="96.2" rx="4" ry="4" height="23.8085" stroke="none"/>
    </g>
    <g text-rendering="geometricPrecision" stroke-miterlimit="1.45" shape-rendering="geometricPrecision" transform="matrix(1,0,0,1,-104,-344)" stroke-linecap="butt">
      <rect x="315.2544" y="416.0954" clip-path="url(#clipPath2)" fill="none" width="96.2" rx="4" ry="4" height="23.8085"/>
      <text x="322.2568" xml:space="preserve" y="432.1539" clip-path="url(#clipPath2)" font-family="sans-serif" stroke="none">time:Instance</text>
    </g>
    <g fill="white" text-rendering="geometricPrecision" shape-rendering="geometricPrecision" transform="matrix(1,0,0,1,-104,-344)" stroke="white">
      <rect x="315.2544" y="387.5728" clip-path="url(#clipPath2)" width="96.2" rx="4" ry="4" height="23.8085" stroke="none"/>
    </g>
    <g text-rendering="geometricPrecision" stroke-miterlimit="1.45" shape-rendering="geometricPrecision" transform="matrix(1,0,0,1,-104,-344)" stroke-linecap="butt">
      <rect x="315.2544" y="387.5728" clip-path="url(#clipPath2)" fill="none" width="96.2" rx="4" ry="4" height="23.8085"/>
      <text x="324.7998" xml:space="preserve" y="403.6313" clip-path="url(#clipPath2)" font-family="sans-serif" stroke="none">time:Interval</text>
    </g>
    <g fill="white" text-rendering="geometricPrecision" shape-rendering="geometricPrecision" transform="matrix(1,0,0,1,-104,-344)" stroke="white">
      <rect x="761.7426" y="456.0928" clip-path="url(#clipPath2)" width="121" rx="4" ry="4" height="23.8085" stroke="none"/>
    </g>
    <g text-rendering="geometricPrecision" stroke-miterlimit="1.45" shape-rendering="geometricPrecision" transform="matrix(1,0,0,1,-104,-344)" stroke-linecap="butt">
      <rect x="761.7426" y="456.0928" clip-path="url(#clipPath2)" fill="none" width="121" rx="4" ry="4" height="23.8085"/>
      <text x="765.0082" xml:space="preserve" y="472.1513" clip-path="url(#clipPath2)" font-family="sans-serif" stroke="none">IntendedTrajectory</text>
    </g>
    <g fill="white" text-rendering="geometricPrecision" shape-rendering="geometricPrecision" transform="matrix(1,0,0,1,-104,-344)" stroke="white">
      <rect x="761.7426" y="484.0297" clip-path="url(#clipPath2)" width="121" rx="4" ry="4" height="23.8085" stroke="none"/>
    </g>
    <g text-rendering="geometricPrecision" stroke-miterlimit="1.45" shape-rendering="geometricPrecision" transform="matrix(1,0,0,1,-104,-344)" stroke-linecap="butt">
      <rect x="761.7426" y="484.0297" clip-path="url(#clipPath2)" fill="none" width="121" rx="4" ry="4" height="23.8085"/>
      <text x="772.8334" xml:space="preserve" y="500.0883" clip-path="url(#clipPath2)" font-family="sans-serif" stroke="none">ActualTrajectory</text>
    </g>
    <g fill="white" text-rendering="geometricPrecision" shape-rendering="geometricPrecision" transform="matrix(1,0,0,1,-104,-344)" stroke="white">
      <rect x="182.3785" y="535.7308" clip-path="url(#clipPath2)" width="105" rx="4" ry="4" height="23.8085" stroke="none"/>
    </g>
    <g text-rendering="geometricPrecision" stroke-miterlimit="1.45" shape-rendering="geometricPrecision" transform="matrix(1,0,0,1,-104,-344)" stroke-linecap="butt">
      <rect x="182.3785" y="535.7308" clip-path="url(#clipPath2)" fill="none" width="105" rx="4" ry="4" height="23.8085"/>
      <text x="187.9566" xml:space="preserve" y="551.7894" clip-path="url(#clipPath2)" font-family="sans-serif" stroke="none">HighLevelEvent</text>
    </g>
    <g fill="white" text-rendering="geometricPrecision" shape-rendering="geometricPrecision" transform="matrix(1,0,0,1,-104,-344)" stroke="white">
      <rect x="310.8544" y="541.2931" clip-path="url(#clipPath2)" width="105" rx="4" ry="4" height="23.8085" stroke="none"/>
    </g>
    <g text-rendering="geometricPrecision" stroke-miterlimit="1.45" shape-rendering="geometricPrecision" transform="matrix(1,0,0,1,-104,-344)" stroke-linecap="butt">
      <rect x="310.8544" y="541.2931" clip-path="url(#clipPath2)" fill="none" width="105" rx="4" ry="4" height="23.8085"/>
      <text x="318.3017" xml:space="preserve" y="557.3517" clip-path="url(#clipPath2)" font-family="sans-serif" stroke="none">LowLevelEvent</text>
    </g>
    <g fill="white" text-rendering="geometricPrecision" shape-rendering="geometricPrecision" transform="matrix(1,0,0,1,-104,-344)" stroke="white">
      <rect x="374.831" y="578.0285" clip-path="url(#clipPath2)" width="80.54" rx="4" ry="4" height="23.8085" stroke="none"/>
    </g>
    <g text-rendering="geometricPrecision" stroke-miterlimit="1.45" shape-rendering="geometricPrecision" transform="matrix(1,0,0,1,-104,-344)" stroke-linecap="butt">
      <rect x="374.831" y="578.0285" clip-path="url(#clipPath2)" fill="none" width="80.54" rx="4" ry="4" height="23.8085"/>
      <text x="399.0111" xml:space="preserve" y="594.087" clip-path="url(#clipPath2)" font-family="sans-serif" stroke="none">Move</text>
    </g>
    <g fill="white" text-rendering="geometricPrecision" shape-rendering="geometricPrecision" transform="matrix(1,0,0,1,-104,-344)" stroke="white">
      <rect x="374.831" y="606.2576" clip-path="url(#clipPath2)" width="80.54" rx="4" ry="4" height="23.8085" stroke="none"/>
    </g>
    <g text-rendering="geometricPrecision" stroke-miterlimit="1.45" shape-rendering="geometricPrecision" transform="matrix(1,0,0,1,-104,-344)" stroke-linecap="butt">
      <rect x="374.831" y="606.2576" clip-path="url(#clipPath2)" fill="none" width="80.54" rx="4" ry="4" height="23.8085"/>
      <text x="401.4604" xml:space="preserve" y="622.3162" clip-path="url(#clipPath2)" font-family="sans-serif" stroke="none">Stop</text>
    </g>
    <g fill="white" text-rendering="geometricPrecision" shape-rendering="geometricPrecision" transform="matrix(1,0,0,1,-104,-344)" stroke="white">
      <rect x="374.831" y="649.3021" clip-path="url(#clipPath2)" width="80.54" rx="4" ry="4" height="23.8085" stroke="none"/>
    </g>
    <g text-rendering="geometricPrecision" stroke-miterlimit="1.45" shape-rendering="geometricPrecision" transform="matrix(1,0,0,1,-104,-344)" stroke-linecap="butt">
      <rect x="374.831" y="649.3021" clip-path="url(#clipPath2)" fill="none" width="80.54" rx="4" ry="4" height="23.8085"/>
      <text x="401.3637" xml:space="preserve" y="665.3606" clip-path="url(#clipPath2)" font-family="sans-serif" stroke="none">Turn</text>
      <text x="408.2631" y="642.0161" clip-path="url(#clipPath2)" font-family="sans-serif" stroke="none" font-weight="bold" xml:space="preserve">...</text>
    </g>
    <g fill="white" text-rendering="geometricPrecision" shape-rendering="geometricPrecision" transform="matrix(1,0,0,1,-104,-344)" stroke="white">
      <rect x="248.4461" y="569.2158" clip-path="url(#clipPath2)" width="55.58" rx="4" ry="4" height="23.8085" stroke="none"/>
    </g>
    <g text-rendering="geometricPrecision" stroke-miterlimit="1.45" shape-rendering="geometricPrecision" transform="matrix(1,0,0,1,-104,-344)" stroke-linecap="butt">
      <rect x="248.4461" y="569.2158" clip-path="url(#clipPath2)" fill="none" width="55.58" rx="4" ry="4" height="23.8085"/>
      <text x="254.9109" xml:space="preserve" y="585.2743" clip-path="url(#clipPath2)" font-family="sans-serif" stroke="none">Fishing</text>
    </g>
    <g fill="white" text-rendering="geometricPrecision" shape-rendering="geometricPrecision" transform="matrix(1,0,0,1,-104,-344)" stroke="white">
      <rect x="248.4461" y="618.7158" clip-path="url(#clipPath2)" width="55.58" rx="4" ry="4" height="23.8085" stroke="none"/>
    </g>
    <g text-rendering="geometricPrecision" stroke-miterlimit="1.45" shape-rendering="geometricPrecision" transform="matrix(1,0,0,1,-104,-344)" stroke-linecap="butt">
      <rect x="248.4461" y="618.7158" clip-path="url(#clipPath2)" fill="none" width="55.58" rx="4" ry="4" height="23.8085"/>
      <text x="249.7663" xml:space="preserve" y="634.7743" clip-path="url(#clipPath2)" font-family="sans-serif" stroke="none">Loitering</text>
    </g>
    <g fill="white" text-rendering="geometricPrecision" shape-rendering="geometricPrecision" transform="matrix(1,0,0,1,-104,-344)" stroke="white">
      <rect x="162.8661" y="582.5027" clip-path="url(#clipPath2)" width="55.58" rx="4" ry="4" height="23.8085" stroke="none"/>
    </g>
    <g text-rendering="geometricPrecision" stroke-miterlimit="1.45" shape-rendering="geometricPrecision" transform="matrix(1,0,0,1,-104,-344)" stroke-linecap="butt">
      <rect x="162.8661" y="582.5027" clip-path="url(#clipPath2)" fill="none" width="55.58" rx="4" ry="4" height="23.8085"/>
      <text x="165.5281" xml:space="preserve" y="598.5613" clip-path="url(#clipPath2)" font-family="sans-serif" stroke="none">Collision</text>
    </g>
    <g fill="white" text-rendering="geometricPrecision" shape-rendering="geometricPrecision" transform="matrix(1,0,0,1,-104,-344)" stroke="white">
      <rect x="110.6561" y="623.0242" clip-path="url(#clipPath2)" width="114.0595" rx="4" ry="4" height="23.8085" stroke="none"/>
    </g>
    <g text-rendering="geometricPrecision" stroke-miterlimit="1.45" shape-rendering="geometricPrecision" transform="matrix(1,0,0,1,-104,-344)" stroke-linecap="butt">
      <rect x="110.6561" y="623.0242" clip-path="url(#clipPath2)" fill="none" width="114.0595" rx="4" ry="4" height="23.8085"/>
      <text x="116.3694" xml:space="preserve" y="639.0828" clip-path="url(#clipPath2)" font-family="sans-serif" stroke="none">RunwayIncursion</text>
      <text x="269.3982" y="607.5905" clip-path="url(#clipPath2)" font-family="sans-serif" stroke="none" font-weight="bold" xml:space="preserve">...</text>
      <text x="185.4943" y="617.303" clip-path="url(#clipPath2)" font-family="sans-serif" stroke="none" font-weight="bold" xml:space="preserve">...</text>
      <text x="788.3906" xml:space="preserve" y="615.0892" clip-path="url(#clipPath2)" font-family="sans-serif" stroke="none">subClassOf</text>
    </g>
    <g fill="white" text-rendering="geometricPrecision" shape-rendering="geometricPrecision" transform="matrix(1,0,0,1,-104,-344)" stroke="white">
      <rect x="827.8595" y="548.3727" clip-path="url(#clipPath2)" width="50.992" rx="4" ry="4" height="24.88" stroke="none"/>
    </g>
    <g text-rendering="geometricPrecision" stroke-miterlimit="1.45" shape-rendering="geometricPrecision" transform="matrix(1,0,0,1,-104,-344)" stroke-linecap="butt">
      <rect x="827.8595" y="548.3727" clip-path="url(#clipPath2)" fill="none" width="50.992" rx="4" ry="4" height="24.88"/>
      <text x="837.5703" xml:space="preserve" y="564.967" clip-path="url(#clipPath2)" font-family="sans-serif" stroke="none">Class</text>
    </g>
    <g fill="white" text-rendering="geometricPrecision" shape-rendering="geometricPrecision" transform="matrix(1,0,0,1,-104,-344)" stroke="white">
      <rect x="760.4465" y="577.4927" clip-path="url(#clipPath2)" width="18.9788" rx="4" ry="4" height="24.88" stroke="none"/>
      <rect x="865.8515" y="577.4927" clip-path="url(#clipPath2)" width="13" rx="4" ry="4" height="24.88" stroke="none"/>
    </g>
    <g text-rendering="geometricPrecision" stroke-miterlimit="1.45" shape-rendering="geometricPrecision" font-family="sans-serif" transform="matrix(1,0,0,1,-104,-344)" stroke-linecap="butt">
      <text x="782.6126" xml:space="preserve" y="633.0797" clip-path="url(#clipPath2)" stroke="none">subPropertyOf</text>
    </g>
    <g fill="white" text-rendering="geometricPrecision" shape-rendering="geometricPrecision" transform="matrix(1,0,0,1,-104,-344)" stroke="white">
      <rect x="223.4544" y="447.3229" clip-path="url(#clipPath2)" width="105" rx="4" ry="4" height="23.8085" stroke="none"/>
    </g>
    <g text-rendering="geometricPrecision" stroke-miterlimit="1.45" shape-rendering="geometricPrecision" transform="matrix(1,0,0,1,-104,-344)" stroke-linecap="butt">
      <rect x="223.4544" y="447.3229" clip-path="url(#clipPath2)" fill="none" width="105" rx="4" ry="4" height="23.8085"/>
      <text x="238.7767" xml:space="preserve" y="463.3814" clip-path="url(#clipPath2)" font-family="sans-serif" stroke="none">sf:Geometry</text>
    </g>
    <g fill="white" text-rendering="geometricPrecision" shape-rendering="geometricPrecision" transform="matrix(1,0,0,1,-104,-344)" stroke="white">
      <rect x="209.9544" y="475.8215" clip-path="url(#clipPath2)" width="132" rx="4" ry="4" height="23.8085" stroke="none"/>
    </g>
    <g text-rendering="geometricPrecision" stroke-miterlimit="1.45" shape-rendering="geometricPrecision" transform="matrix(1,0,0,1,-104,-344)" stroke-linecap="butt">
      <rect x="209.9544" y="475.8215" clip-path="url(#clipPath2)" fill="none" width="132" rx="4" ry="4" height="23.8085"/>
      <text x="211.6537" xml:space="preserve" y="491.88" clip-path="url(#clipPath2)" font-family="sans-serif" stroke="none">sw:WeatherCondition</text>
      <path fill="none" stroke-dasharray="6,2" d="M533.5748 480.5404 L533.1573 480.0781 L529.6878 476.1852 L526.3423 472.3617 L523.1518 468.625 L520.1473 464.9925 L517.3598 461.4815 L514.8203 458.1094 L512.5599 454.8935 L510.6094 451.8513 L509 449 L507.7536 446.353 L506.8561 443.9074 L506.2846 441.6562 L506.0159 439.5926 L506.0269 437.7095 L506.2946 436 L506.796 434.4572 L507.5079 433.0741 L508.4074 431.8438 L509.4712 430.7592 L510.6765 429.8137 L512 429 L513.4201 428.3171 L514.9203 427.787 L516.4855 427.4375 L518.1005 427.2963 L519.7503 427.3912 L521.4196 427.75 L523.0934 428.4005 L524.7566 429.3704 L526.394 430.6875 L527.9904 432.3796 L529.5308 434.4745 L531 437 L532.3866 439.9728 L533.6941 443.3658 L534.9297 447.1406 L536.1005 451.2592 L537.2138 455.6834 L538.2768 460.375 L539.2966 465.2957 L540.2804 470.4074 L540.6982 472.7105 L540.7153 472.809" clip-path="url(#clipPath2)"/>
      <path stroke-dasharray="6,2" d="M542.1062 480.6872 L544.9438 468.0006 L540.5415 471.8242 L535.0961 469.7392 Z" clip-path="url(#clipPath2)" stroke="none"/>
      <rect x="497.1813" y="418.6211" clip-path="url(#clipPath2)" fill="white" width="49.4395" stroke-dasharray="6,2" height="17.9688" stroke="none"/>
      <rect stroke-linecap="square" x="497.1813" y="418.6211" clip-path="url(#clipPath2)" fill="none" width="49.4395" height="17.9688" stroke-miterlimit="1.6"/>
      <text x="499.1813" xml:space="preserve" y="431.7598" clip-path="url(#clipPath2)" font-family="sans-serif" stroke="none">hasPart</text>
      <path fill="none" stroke-dasharray="6,2" d="M557.0244 480.5484 L559.5563 478.308 L564.5132 473.8783 L569.2742 469.5637 L573.7902 465.3929 L578.0123 461.3947 L581.8915 457.5979 L585.3789 454.0312 L588.4254 450.7235 L590.9821 447.7036 L593 445 L594.4467 442.632 L595.356 440.58 L595.7784 438.8147 L595.7645 437.3069 L595.3647 436.0272 L594.6295 434.9464 L593.6093 434.0353 L592.3545 433.2646 L590.9157 432.6049 L589.3434 432.0271 L587.688 431.5019 L586 431 L584.3208 430.5042 L582.6559 430.0456 L581.0016 429.6674 L579.3545 429.4127 L577.7108 429.3246 L576.067 429.4464 L574.4194 429.8212 L572.7645 430.4921 L571.0988 431.5022 L569.4185 432.8948 L567.7201 434.713 L566 437 L564.2556 439.7845 L562.4879 443.0384 L560.6992 446.7188 L558.8915 450.7831 L557.067 455.1887 L555.2277 459.8929 L553.3757 464.853 L551.5132 470.0265 L550.4787 472.9814 L550.4462 473.076" clip-path="url(#clipPath2)"/>
      <path stroke-dasharray="6,2" d="M547.8351 480.6379 L556.478 470.927 L550.7726 472.1308 L547.0256 467.6631 Z" clip-path="url(#clipPath2)" stroke="none"/>
      <rect x="556.9523" y="422.6588" clip-path="url(#clipPath2)" fill="white" width="59.166" stroke-dasharray="6,2" height="17.9688" stroke="none"/>
      <rect stroke-linecap="square" x="556.9523" y="422.6588" clip-path="url(#clipPath2)" fill="none" width="59.166" height="17.9688" stroke-miterlimit="1.6"/>
      <text x="558.9523" xml:space="preserve" y="435.7975" clip-path="url(#clipPath2)" font-family="sans-serif" stroke="none">precedes</text>
      <path fill="none" stroke-dasharray="6,2" d="M703.1786 434.7475 L686.3658 439.1199 L666.1263 446.3072 L646.5919 455.2346 L627.7626 465.9022 L609.6383 478.3101 L598.4629 487.3869" clip-path="url(#clipPath2)"/>
      <path stroke-dasharray="6,2" d="M592.2531 492.4306 L604.7201 488.7462 L599.2391 486.7564 L598.4155 480.9839 Z" clip-path="url(#clipPath2)" stroke="none"/>
      <rect x="620.2012" y="446.555" clip-path="url(#clipPath2)" fill="white" width="65.4004" stroke-dasharray="6,2" height="17.9688" stroke="none"/>
      <rect stroke-linecap="square" x="620.2012" y="446.555" clip-path="url(#clipPath2)" fill="none" width="65.4004" height="17.9688" stroke-miterlimit="1.6"/>
      <text x="622.2012" xml:space="preserve" y="459.6936" clip-path="url(#clipPath2)" font-family="sans-serif" stroke="none">comprises</text>
      <path fill="none" stroke-dasharray="6,2" d="M736.3816 416.0986 L732.248 412.8044 L712.433 399.5067 L691.8696 388.1068 L670.5577 378.6045 L648.4973 370.9998 L638.1268 368.4051" clip-path="url(#clipPath2)"/>
      <path stroke-dasharray="6,2" d="M630.3661 366.4632 L640.7936 374.2264 L639.0969 368.6478 L643.2209 364.5255 Z" clip-path="url(#clipPath2)" stroke="none"/>
      <rect x="662.8827" y="381.3734" clip-path="url(#clipPath2)" fill="white" width="53.7812" stroke-dasharray="6,2" height="17.9688" stroke="none"/>
      <rect stroke-linecap="square" x="662.8827" y="381.3734" clip-path="url(#clipPath2)" fill="none" width="53.7812" height="17.9688" stroke-miterlimit="1.6"/>
      <text x="664.8827" xml:space="preserve" y="394.5121" clip-path="url(#clipPath2)" font-family="sans-serif" stroke="none">refersTo</text>
      <path fill="none" d="M534.5952 562.2327 L544.1334 562.2327 L544.1334 519.3484" clip-path="url(#clipPath2)"/>
      <path fill="white" d="M544.1334 504.3484 L538.1334 520.3484 L550.1334 520.3484 Z" clip-path="url(#clipPath2)" stroke="none"/>
      <path fill="none" d="M544.1334 504.3484 L538.1334 520.3484 L550.1334 520.3484 Z" clip-path="url(#clipPath2)"/>
      <path fill="none" d="M659.9378 486.9364 L649.4269 486.9364 L649.4269 479.6686" clip-path="url(#clipPath2)"/>
      <path fill="white" d="M649.4269 464.6686 L643.4269 480.6686 L655.4269 480.6686 Z" clip-path="url(#clipPath2)" stroke="none"/>
      <path fill="none" d="M649.4269 464.6686 L643.4269 480.6686 L655.4269 480.6686 Z" clip-path="url(#clipPath2)"/>
      <path fill="none" d="M659.9378 509.9025 L649.4269 509.9025 L649.4269 479.619" clip-path="url(#clipPath2)"/>
      <path fill="white" d="M649.4269 464.619 L643.4269 480.619 L655.4269 480.619 Z" clip-path="url(#clipPath2)" stroke="none"/>
      <path fill="none" d="M649.4269 464.619 L643.4269 480.619 L655.4269 480.619 Z" clip-path="url(#clipPath2)"/>
      <path fill="none" d="M534.5952 534.4921 L544.1334 534.4921 L544.1334 519.4034" clip-path="url(#clipPath2)"/>
      <path fill="white" d="M544.1334 504.4034 L538.1334 520.4034 L550.1334 520.4034 Z" clip-path="url(#clipPath2)" stroke="none"/>
      <path fill="none" d="M544.1334 504.4034 L538.1334 520.4034 L550.1334 520.4034 Z" clip-path="url(#clipPath2)"/>
      <path fill="none" d="M552.1407 570.6806 L544.1334 570.6806 L544.1334 519.3367" clip-path="url(#clipPath2)"/>
      <path fill="white" d="M544.1334 504.3367 L538.1334 520.3367 L550.1334 520.3367 Z" clip-path="url(#clipPath2)" stroke="none"/>
      <path fill="none" d="M544.1334 504.3367 L538.1334 520.3367 L550.1334 520.3367 Z" clip-path="url(#clipPath2)"/>
      <path fill="none" stroke-dasharray="6,2" d="M352.4413 512.6105 L368.4969 506.6751 L392.9833 499.4341 L417.6713 493.9298 L442.5608 490.1621 L467.6517 488.1311 L488.082 487.8934 L488.1819 487.899" clip-path="url(#clipPath2)"/>
      <path stroke-dasharray="6,2" d="M496.181 488.0157 L484.2552 482.8412 L487.1819 487.8844 L484.1093 492.8401 Z" clip-path="url(#clipPath2)" stroke="none"/>
      <rect x="400.0825" y="486.5725" clip-path="url(#clipPath2)" fill="white" width="43.3281" stroke-dasharray="6,2" height="17.9688" stroke="none"/>
      <rect stroke-linecap="square" x="400.0825" y="486.5725" clip-path="url(#clipPath2)" fill="none" width="43.3281" height="17.9688" stroke-miterlimit="1.6"/>
      <text x="402.0825" xml:space="preserve" y="499.7112" clip-path="url(#clipPath2)" font-family="sans-serif" stroke="none">occurs</text>
      <path fill="none" d="M761.739 523.871 L751.3145 523.871 L751.3145 454.9367" clip-path="url(#clipPath2)"/>
      <path fill="white" d="M751.3145 439.9367 L745.3145 455.9367 L757.3145 455.9367 Z" clip-path="url(#clipPath2)" stroke="none"/>
      <path fill="none" d="M751.3145 439.9367 L745.3145 455.9367 L757.3145 455.9367 Z" clip-path="url(#clipPath2)"/>
      <path fill="none" d="M271.9195 516.2243 L170.1353 516.2243 L170.1353 423.6998" clip-path="url(#clipPath2)"/>
      <path fill="white" d="M170.1353 408.6998 L164.1353 424.6998 L176.1353 424.6998 Z" clip-path="url(#clipPath2)" stroke="none"/>
      <path fill="none" d="M170.1353 408.6998 L164.1353 424.6998 L176.1353 424.6998 Z" clip-path="url(#clipPath2)"/>
      <path fill="none" stroke-dasharray="6,2" d="M528.3067 480.5408 L526.929 479.5034 L511.1416 465.504 L496.7712 450.4601 L483.8178 434.3716 L472.2814 417.2385 L462.1621 399.0609 L453.4597 379.8387 L453.1636 379.0149" clip-path="url(#clipPath2)"/>
      <path stroke-dasharray="6,2" d="M450.4574 371.4865 L449.8115 384.4705 L453.5019 379.9559 L459.222 381.0877 Z" clip-path="url(#clipPath2)" stroke="none"/>
      <rect x="424.8557" y="393.8184" clip-path="url(#clipPath2)" fill="white" width="128.459" stroke-dasharray="6,2" height="17.9688" stroke="none"/>
      <rect stroke-linecap="square" x="424.8557" y="393.8184" clip-path="url(#clipPath2)" fill="none" width="128.459" height="17.9688" stroke-miterlimit="1.6"/>
      <text x="426.8557" xml:space="preserve" y="406.957" clip-path="url(#clipPath2)" font-family="sans-serif" stroke="none">hasTemporalFeature</text>
      <path fill="none" stroke-dasharray="6,2" d="M221.6617 386.3186 L235.9382 382.2967 L283.4781 371.8879 L331.551 364.3129 L372.1946 360.3485" clip-path="url(#clipPath2)"/>
      <path stroke-dasharray="6,2" d="M380.1569 359.5719 L367.7281 355.7604 L371.1994 360.4456 L368.6989 365.7132 Z" clip-path="url(#clipPath2)" stroke="none"/>
      <rect x="230.1915" y="361.5095" clip-path="url(#clipPath2)" fill="white" width="128.459" stroke-dasharray="6,2" height="17.9688" stroke="none"/>
      <rect stroke-linecap="square" x="230.1915" y="361.5095" clip-path="url(#clipPath2)" fill="none" width="128.459" height="17.9688" stroke-miterlimit="1.6"/>
      <text x="232.1915" xml:space="preserve" y="374.6481" clip-path="url(#clipPath2)" font-family="sans-serif" stroke="none">hasTemporalFeature</text>
      <path fill="none" d="M411.4382 427.9996 L420.5745 427.9996 L420.5745 386.4518" clip-path="url(#clipPath2)"/>
      <path fill="white" d="M420.5745 371.4518 L414.5745 387.4518 L426.5745 387.4518 Z" clip-path="url(#clipPath2)" stroke="none"/>
      <path fill="none" d="M420.5745 371.4518 L414.5745 387.4518 L426.5745 387.4518 Z" clip-path="url(#clipPath2)"/>
      <path fill="none" d="M411.4382 399.4771 L420.5745 399.4771 L420.5745 386.4708" clip-path="url(#clipPath2)"/>
      <path fill="white" d="M420.5745 371.4708 L414.5745 387.4708 L426.5745 387.4708 Z" clip-path="url(#clipPath2)" stroke="none"/>
      <path fill="none" d="M420.5745 371.4708 L414.5745 387.4708 L426.5745 387.4708 Z" clip-path="url(#clipPath2)"/>
      <path fill="none" d="M761.739 467.997 L751.3145 467.997 L751.3145 454.9129" clip-path="url(#clipPath2)"/>
      <path fill="white" d="M751.3145 439.9129 L745.3145 455.9129 L757.3145 455.9129 Z" clip-path="url(#clipPath2)" stroke="none"/>
      <path fill="none" d="M751.3145 439.9129 L745.3145 455.9129 L757.3145 455.9129 Z" clip-path="url(#clipPath2)"/>
      <path fill="none" d="M761.739 495.934 L751.3145 495.934 L751.3145 454.9081" clip-path="url(#clipPath2)"/>
      <path fill="white" d="M751.3145 439.9081 L745.3145 455.9081 L757.3145 455.9081 Z" clip-path="url(#clipPath2)" stroke="none"/>
      <path fill="none" d="M751.3145 439.9081 L745.3145 455.9081 L757.3145 455.9081 Z" clip-path="url(#clipPath2)"/>
      <path fill="none" d="M287.3727 547.6351 L300.3922 547.6351 L300.3922 543.1512" clip-path="url(#clipPath2)"/>
      <path fill="white" d="M300.3922 528.1512 L294.3922 544.1512 L306.3922 544.1512 Z" clip-path="url(#clipPath2)" stroke="none"/>
      <path fill="none" d="M300.3922 528.1512 L294.3922 544.1512 L306.3922 544.1512 Z" clip-path="url(#clipPath2)"/>
      <path fill="none" d="M310.8757 553.1974 L300.3922 553.1974 L300.3922 543.1195" clip-path="url(#clipPath2)"/>
      <path fill="white" d="M300.3922 528.1195 L294.3922 544.1195 L306.3922 544.1195 Z" clip-path="url(#clipPath2)" stroke="none"/>
      <path fill="none" d="M300.3922 528.1195 L294.3922 544.1195 L306.3922 544.1195 Z" clip-path="url(#clipPath2)"/>
      <path fill="none" d="M374.8509 589.9327 L363.3545 589.9327 L363.3545 580.0718" clip-path="url(#clipPath2)"/>
      <path fill="white" d="M363.3545 565.0718 L357.3545 581.0718 L369.3545 581.0718 Z" clip-path="url(#clipPath2)" stroke="none"/>
      <path fill="none" d="M363.3545 565.0718 L357.3545 581.0718 L369.3545 581.0718 Z" clip-path="url(#clipPath2)"/>
      <path fill="none" d="M374.8509 618.1619 L363.3545 618.1619 L363.3545 580.0927" clip-path="url(#clipPath2)"/>
      <path fill="white" d="M363.3545 565.0927 L357.3545 581.0927 L369.3545 581.0927 Z" clip-path="url(#clipPath2)" stroke="none"/>
      <path fill="none" d="M363.3545 565.0927 L357.3545 581.0927 L369.3545 581.0927 Z" clip-path="url(#clipPath2)"/>
      <path fill="none" d="M374.8509 661.2063 L363.3545 661.2063 L363.3545 580.09" clip-path="url(#clipPath2)"/>
      <path fill="white" d="M363.3545 565.09 L357.3545 581.09 L369.3545 581.09 Z" clip-path="url(#clipPath2)" stroke="none"/>
      <path fill="none" d="M363.3545 565.09 L357.3545 581.09 L369.3545 581.09 Z" clip-path="url(#clipPath2)"/>
      <path fill="none" d="M248.4085 581.12 L234.8785 581.12 L234.8785 574.5706" clip-path="url(#clipPath2)"/>
      <path fill="white" d="M234.8785 559.5706 L228.8785 575.5706 L240.8785 575.5706 Z" clip-path="url(#clipPath2)" stroke="none"/>
      <path fill="none" d="M234.8785 559.5706 L228.8785 575.5706 L240.8785 575.5706 Z" clip-path="url(#clipPath2)"/>
      <path fill="none" d="M248.4085 630.62 L234.8785 630.62 L234.8785 574.5074" clip-path="url(#clipPath2)"/>
      <path fill="white" d="M234.8785 559.5074 L228.8785 575.5074 L240.8785 575.5074 Z" clip-path="url(#clipPath2)" stroke="none"/>
      <path fill="none" d="M234.8785 559.5074 L228.8785 575.5074 L240.8785 575.5074 Z" clip-path="url(#clipPath2)"/>
      <path fill="none" d="M218.4246 594.407 L234.8785 594.407 L234.8785 574.5565" clip-path="url(#clipPath2)"/>
      <path fill="white" d="M234.8785 559.5565 L228.8785 575.5565 L240.8785 575.5565 Z" clip-path="url(#clipPath2)" stroke="none"/>
      <path fill="none" d="M234.8785 559.5565 L228.8785 575.5565 L240.8785 575.5565 Z" clip-path="url(#clipPath2)"/>
      <path fill="none" d="M224.7405 634.9285 L234.8785 634.9285 L234.8785 574.5271" clip-path="url(#clipPath2)"/>
      <path fill="white" d="M234.8785 559.5271 L228.8785 575.5271 L240.8785 575.5271 Z" clip-path="url(#clipPath2)" stroke="none"/>
      <path fill="none" d="M234.8785 559.5271 L228.8785 575.5271 L240.8785 575.5271 Z" clip-path="url(#clipPath2)"/>
      <path fill="none" d="M787.2496 618.6638 L856.4429 618.6638" clip-path="url(#clipPath2)"/>
      <path fill="white" d="M871.4429 618.6638 L855.4429 612.6638 L855.4429 624.6638 Z" clip-path="url(#clipPath2)" stroke="none"/>
      <path fill="none" d="M871.4429 618.6638 L855.4429 612.6638 L855.4429 624.6638 Z" clip-path="url(#clipPath2)"/>
      <path fill="none" stroke-dasharray="6,2" d="M779.4123 589.9327 L857.8621 589.9327" clip-path="url(#clipPath2)"/>
      <path stroke-dasharray="6,2" d="M865.8621 589.9327 L853.8621 584.9327 L856.8621 589.9327 L853.8621 594.9327 Z" clip-path="url(#clipPath2)" stroke="none"/>
      <rect x="792.0465" y="580.9484" clip-path="url(#clipPath2)" fill="white" width="55.252" stroke-dasharray="6,2" height="17.9688" stroke="none"/>
      <rect stroke-linecap="square" x="792.0465" y="580.9484" clip-path="url(#clipPath2)" fill="none" width="55.252" height="17.9688" stroke-miterlimit="1.6"/>
      <text x="794.0466" xml:space="preserve" y="594.087" clip-path="url(#clipPath2)" font-family="sans-serif" stroke="none">Property</text>
      <path fill="none" stroke-dasharray="6,2" d="M502.0774 480.5612 L481.0361 475.4704 L449.2161 469.4936 L417.2152 465.1949 L385.0334 462.5743 L352.6707 461.6317 L336.4833 461.9975" clip-path="url(#clipPath2)"/>
      <path stroke-dasharray="6,2" d="M328.4854 462.1783 L340.5953 466.9059 L337.4831 461.9749 L340.3694 456.9084 Z" clip-path="url(#clipPath2)" stroke="none"/>
      <rect x="360.8197" y="456.2105" clip-path="url(#clipPath2)" fill="white" width="112.791" stroke-dasharray="6,2" height="17.9688" stroke="none"/>
      <rect stroke-linecap="square" x="360.8197" y="456.2105" clip-path="url(#clipPath2)" fill="none" width="112.791" height="17.9688" stroke-miterlimit="1.6"/>
      <text x="362.8197" xml:space="preserve" y="469.3492" clip-path="url(#clipPath2)" font-family="sans-serif" stroke="none">hasSpatialFeature</text>
      <path fill="none" stroke-dasharray="6,2" d="M204.602 408.6674 L214.0909 412.9521 L227.6032 420.2762 L240.5457 428.5658 L252.9184 437.8208 L257.8668 442.1057" clip-path="url(#clipPath2)"/>
      <path stroke-dasharray="6,2" d="M263.9145 447.3426 L258.116 435.7074 L257.1108 441.4511 L251.5699 443.2671 Z" clip-path="url(#clipPath2)" stroke="none"/>
      <rect x="195.5033" y="413.6062" clip-path="url(#clipPath2)" fill="white" width="112.791" stroke-dasharray="6,2" height="17.9688" stroke="none"/>
      <rect stroke-linecap="square" x="195.5033" y="413.6062" clip-path="url(#clipPath2)" fill="none" width="112.791" height="17.9688" stroke-miterlimit="1.6"/>
      <text x="197.5033" xml:space="preserve" y="426.7449" clip-path="url(#clipPath2)" font-family="sans-serif" stroke="none">hasSpatialFeature</text>
      <path fill="none" d="M209.9692 487.5154 L170.1353 487.5154 L170.1353 423.691" clip-path="url(#clipPath2)"/>
      <path fill="white" d="M170.1353 408.691 L164.1353 424.691 L176.1353 424.691 Z" clip-path="url(#clipPath2)" stroke="none"/>
      <path fill="none" d="M170.1353 408.691 L164.1353 424.691 L176.1353 424.691 Z" clip-path="url(#clipPath2)"/>
    </g>
  </g>
</svg>
